<?xml version="1.0" encoding="UTF-8"?>
<svg xmlns="http://www.w3.org/2000/svg" version="1.1" viewBox="0 0 125 125">
  <defs>
    <style>
      .cls-1 {
        fill: #f9e6e5;
      }

      .cls-2 {
        fill: #eb5f63;
      }

      .cls-3 {
        fill: #191832;
      }
    </style>
  </defs>
  <!-- Generator: Adobe Illustrator 28.6.0, SVG Export Plug-In . SVG Version: 1.2.0 Build 709)  -->
  <g>
    <g id="Warstwa_1">
      <rect class="cls-2" x="20" y="14" width="84" height="96.3" rx="19.3" ry="19.3"/>
      <g>
        <g>
          <path class="cls-3" d="M77.3,62.7l-16.7,16.7c-.5.5-1.4.5-1.9,0l-15.8-15.8c-.5-.5-.5-1.4,0-1.9l16.7-16.7c.5-.5,1.4-.5,1.9,0l15.8,15.8h0c.5.5.5,1.4,0,1.9Z"/>
          <path class="cls-3" d="M84.8,70.2l-3.6,3.6c-.5.5-1.4.5-1.9,0l-4.6-4.6c-.5-.5-.5-1.4,0-1.9l3.6-3.6c.5-.5,1.4-.5,1.9,0l4.6,4.6h0c.5.5.5,1.4,0,1.9Z"/>
          <path class="cls-3" d="M78.3,76.7l-3.6,3.6c-.5.5-1.4.5-1.9,0l-4.6-4.6c-.5-.5-.5-1.4,0-1.9l3.6-3.6c.5-.5,1.4-.5,1.9,0l4.6,4.6c.5.5.5,1.4,0,1.9Z"/>
          <rect class="cls-3" x="62.8" y="77.3" width="7.8" height="9.2" rx="1.3" ry="1.3" transform="translate(-38.4 71.1) rotate(-45)"/>
          <path class="cls-3" d="M58.5,43.9l-3.6,3.6c-.5.5-1.4.5-1.9,0l-4.6-4.6c-.5-.5-.5-1.4,0-1.9l3.6-3.6c.5-.5,1.4-.5,1.9,0l4.6,4.6c.5.5.5,1.4,0,1.9Z"/>
          <path class="cls-3" d="M51.9,50.4l-3.6,3.6c-.5.5-1.4.5-1.9,0l-4.6-4.6c-.5-.5-.5-1.4,0-1.9l3.6-3.6c.5-.5,1.4-.5,1.9,0l4.6,4.6h0c.5.5.5,1.4,0,1.9Z"/>
          <path class="cls-3" d="M45.4,57l-3.6,3.6c-.5.5-1.4.5-1.9,0l-4.6-4.6c-.5-.5-.5-1.4,0-1.9l3.6-3.6c.5-.5,1.4-.5,1.9,0l4.6,4.6c.5.5.5,1.4,0,1.9Z"/>
        </g>
        <g>
          <path class="cls-1" d="M81.3,60.8h0s-15.8-15.8-15.8-15.8c-.5-.5-1.4-.5-1.9,0l-16.7,16.7c-.5.5-.5,1.4,0,1.9l15.8,15.8c.5.5,1.4.5,1.9,0l16.7-16.7c.5-.5.5-1.4,0-1.9ZM67.3,66.2l-9.3-2.5c-.5-.1-.7-.8-.3-1.2l6.8-6.8c.4-.4,1-.2,1.2.3l2.5,9.3c.1.5-.3,1-.9.9Z"/>
          <path class="cls-1" d="M88.9,68.3h0s-4.6-4.6-4.6-4.6c-.5-.5-1.4-.5-1.9,0l-3.6,3.6c-.5.5-.5,1.4,0,1.9l4.6,4.6c.5.5,1.4.5,1.9,0l3.6-3.6c.5-.5.5-1.4,0-1.9ZM86.9,70l-1.9,1.9c-.3.3-.9.3-1.2,0l-3-3c-.3-.3-.3-.9,0-1.2l1.9-1.9c.3-.3.9-.3,1.2,0l3,3c.3.3.3.9,0,1.2Z"/>
          <path class="cls-1" d="M77.7,70.3c-.5-.5-1.4-.5-1.9,0l-3.6,3.6c-.5.5-.5,1.4,0,1.9l4.6,4.6c.5.5,1.4.5,1.9,0l3.6-3.6c.5-.5.5-1.4,0-1.9l-4.6-4.6ZM80.3,76.5l-1.9,1.9c-.3.3-.9.3-1.2,0l-3-3c-.3-.3-.3-.9,0-1.2l1.9-1.9c.3-.3.9-.3,1.2,0l3,3c.3.3.3.9,0,1.2Z"/>
          <path class="cls-1" d="M71.2,76.8c-.5-.5-1.4-.5-1.9,0l-3.6,3.6c-.5.5-.5,1.4,0,1.9l4.6,4.6c.5.5,1.4.5,1.9,0l3.6-3.6c.5-.5.5-1.4,0-1.9l-4.6-4.6ZM73.8,83l-1.9,1.9c-.3.3-.9.3-1.2,0l-3-3c-.3-.3-.3-.9,0-1.2l1.9-1.9c.3-.3.9-.3,1.2,0l3,3c.3.3.3.9,0,1.2Z"/>
          <path class="cls-1" d="M57,47.5c.5.5,1.4.5,1.9,0l3.6-3.6c.5-.5.5-1.4,0-1.9l-4.6-4.6c-.5-.5-1.4-.5-1.9,0l-3.6,3.6c-.5.5-.5,1.4,0,1.9l4.6,4.6ZM54.4,41.3l1.9-1.9c.3-.3.9-.3,1.2,0l3,3c.3.3.3.9,0,1.2l-1.9,1.9c-.3.3-.9.3-1.2,0l-3-3c-.3-.3-.3-.9,0-1.2Z"/>
          <path class="cls-1" d="M50.5,54.1c.5.5,1.4.5,1.9,0l3.6-3.6c.5-.5.5-1.4,0-1.9h0s-4.6-4.6-4.6-4.6c-.5-.5-1.4-.5-1.9,0l-3.6,3.6c-.5.5-.5,1.4,0,1.9l4.6,4.6ZM47.9,47.8l1.9-1.9c.3-.3.9-.3,1.2,0l3,3c.3.3.3.9,0,1.2l-1.9,1.9c-.3.3-.9.3-1.2,0l-3-3c-.3-.3-.3-.9,0-1.2Z"/>
          <path class="cls-1" d="M49.4,55.1l-4.6-4.6c-.5-.5-1.4-.5-1.9,0l-3.6,3.6c-.5.5-.5,1.4,0,1.9l4.6,4.6c.5.5,1.4.5,1.9,0l3.6-3.6c.5-.5.5-1.4,0-1.9ZM47.4,56.7l-1.9,1.9c-.3.3-.9.3-1.2,0l-3-3c-.3-.3-.3-.9,0-1.2l1.9-1.9c.3-.3.9-.3,1.2,0l3,3c.3.3.3.9,0,1.2Z"/>
        </g>
      </g>
    </g>
  </g>
</svg>