<?xml version="1.0" encoding="UTF-8"?><svg id="Warstwa_1" xmlns="http://www.w3.org/2000/svg" viewBox="0 0 49.21 49.2"><defs><style>.cls-1{fill:#f9e6e5;}</style></defs><path class="cls-1" d="M41.44,23.24h0s-15.47-15.48-15.47-15.48c-.51-.51-1.34-.51-1.86,0L7.76,24.11c-.51.51-.51,1.34,0,1.86l15.47,15.47c.51.51,1.34.51,1.85,0l16.35-16.35c.51-.51.51-1.34,0-1.85ZM27.7,28.54l-9.13-2.44c-.51-.13-.68-.78-.31-1.14l6.68-6.68c.38-.38,1.01-.2,1.15.31l2.44,9.13c.13.51-.33.98-.84.84Z"/><path class="cls-1" d="M48.83,30.63h0s-4.49-4.5-4.49-4.5c-.51-.51-1.34-.51-1.85,0l-3.54,3.55c-.51.51-.51,1.34,0,1.85l4.49,4.49c.51.51,1.34.51,1.85,0l3.55-3.54c.51-.51.51-1.34,0-1.85ZM46.86,32.22l-1.83,1.83c-.34.34-.88.34-1.21,0l-2.93-2.93c-.34-.34-.34-.88,0-1.21l1.83-1.83c.34-.34.88-.34,1.21,0l2.93,2.93c.34.34.34.88,0,1.21Z"/><path class="cls-1" d="M37.93,32.53c-.51-.51-1.34-.51-1.85,0l-3.55,3.55c-.51.51-.51,1.34,0,1.85l4.49,4.49c.51.51,1.34.51,1.85,0l3.55-3.55c.51-.51.51-1.34,0-1.85l-4.49-4.49ZM40.46,38.62l-1.83,1.83c-.34.34-.88.34-1.21,0l-2.93-2.93c-.34-.34-.34-.88,0-1.21l1.83-1.83c.34-.34.88-.34,1.21,0l2.93,2.93c.34.34.34.88,0,1.21Z"/><path class="cls-1" d="M31.53,38.93c-.51-.51-1.34-.51-1.85,0l-3.55,3.55c-.51.51-.51,1.34,0,1.85l4.49,4.49c.51.51,1.34.51,1.85,0l3.55-3.55c.51-.51.51-1.34,0-1.85l-4.49-4.49ZM34.06,45.03l-1.83,1.83c-.34.34-.88.34-1.21,0l-2.93-2.93c-.34-.34-.34-.88,0-1.21l1.83-1.83c.34-.34.88-.34,1.21,0l2.93,2.93c.34.34.34.88,0,1.21Z"/><path class="cls-1" d="M17.68,10.27c.51.51,1.34.51,1.85,0l3.55-3.55c.51-.51.51-1.34,0-1.85L18.59.38c-.51-.51-1.34-.51-1.85,0l-3.55,3.55c-.51.51-.51,1.34,0,1.85l4.49,4.49ZM15.14,4.17l1.83-1.83c.34-.34.88-.34,1.21,0l2.93,2.93c.34.34.34.88,0,1.21l-1.83,1.83c-.34.34-.88.34-1.21,0l-2.93-2.93c-.34-.34-.34-.88,0-1.21Z"/><path class="cls-1" d="M11.27,16.68c.51.51,1.34.51,1.85,0l3.55-3.54c.51-.51.51-1.34,0-1.85h0s-4.49-4.5-4.49-4.5c-.51-.51-1.34-.51-1.85,0l-3.55,3.55c-.51.51-.51,1.34,0,1.85l4.49,4.49ZM8.74,10.58l1.83-1.83c.34-.34.88-.34,1.21,0l2.93,2.93c.34.34.34.88,0,1.21l-1.83,1.83c-.34.34-.88.34-1.21,0l-2.93-2.93c-.34-.34-.34-.88,0-1.21Z"/><path class="cls-1" d="M10.27,17.68l-4.49-4.49c-.51-.51-1.34-.51-1.85,0l-3.55,3.55c-.51.51-.51,1.34,0,1.85l4.49,4.49c.51.51,1.34.51,1.85,0l3.55-3.55c.51-.51.51-1.34,0-1.85ZM8.32,19.29l-1.83,1.83c-.34.34-.88.34-1.21,0l-2.93-2.93c-.34-.34-.34-.88,0-1.21l1.83-1.83c.34-.34.88-.34,1.21,0l2.93,2.93c.34.34.34.88,0,1.21Z"/></svg>