<?xml version="1.0" encoding="UTF-8"?><svg id="Warstwa_1" xmlns="http://www.w3.org/2000/svg" xmlns:xlink="http://www.w3.org/1999/xlink" viewBox="0 0 79.73 79.73"><defs><style>.cls-1{fill:#f9e6e5;}.cls-2{fill:url(#Gradient_bez_nazwy_10);}.cls-3{fill:#191832;}</style><linearGradient id="Gradient_bez_nazwy_10" x1="0" y1="39.87" x2="79.73" y2="39.87" gradientUnits="userSpaceOnUse"><stop offset="0" stop-color="#f08162"/><stop offset="1" stop-color="#eb6063"/></linearGradient></defs><circle class="cls-2" cx="39.87" cy="39.87" r="39.87"/><path class="cls-3" d="M55.29,40.38l-16.98,16.98c-.53.53-1.39.53-1.92,0l-16.07-16.07c-.53-.53-.53-1.4,0-1.93l16.98-16.98c.54-.53,1.4-.53,1.93,0l16.07,16.07h0c.53.54.53,1.4,0,1.93Z"/><path class="cls-3" d="M62.96,48.04l-3.68,3.68c-.53.53-1.39.53-1.92,0l-4.66-4.66c-.53-.53-.53-1.39,0-1.92l3.68-3.68c.53-.53,1.39-.53,1.92,0l4.66,4.66h0c.53.54.53,1.4,0,1.93Z"/><path class="cls-3" d="M56.31,54.68l-3.68,3.68c-.53.53-1.39.53-1.92,0l-4.67-4.66c-.53-.53-.53-1.39,0-1.92l3.69-3.69c.53-.53,1.39-.53,1.92,0l4.66,4.67c.53.53.53,1.39,0,1.92Z"/><rect class="cls-3" x="40.56" y="55.22" width="7.93" height="9.31" rx="1.36" ry="1.36" transform="translate(-29.3 49.02) rotate(-45)"/><path class="cls-3" d="M36.23,21.3l-3.68,3.68c-.53.53-1.39.53-1.92,0l-4.66-4.66c-.53-.53-.53-1.39,0-1.92l3.69-3.69c.53-.53,1.39-.53,1.92,0l4.66,4.66c.53.53.53,1.39,0,1.92Z"/><path class="cls-3" d="M29.58,27.96l-3.69,3.68c-.53.53-1.39.53-1.92,0l-4.66-4.66c-.53-.53-.53-1.39,0-1.92l3.68-3.68c.53-.53,1.39-.53,1.92,0l4.66,4.66h0c.53.54.53,1.4,0,1.93Z"/><path class="cls-3" d="M22.93,34.6l-3.68,3.68c-.53.53-1.39.53-1.92,0l-4.66-4.66c-.53-.53-.53-1.39,0-1.92l3.69-3.69c.53-.53,1.39-.53,1.92,0l4.66,4.66c.53.53.53,1.39,0,1.92Z"/><path class="cls-1" d="M59.4,38.46h0s-16.07-16.08-16.07-16.08c-.53-.53-1.39-.53-1.93,0l-16.98,16.98c-.53.53-.53,1.39,0,1.93l16.07,16.07c.53.53,1.39.53,1.92,0l16.98-16.98c.53-.53.53-1.39,0-1.92ZM45.14,43.96l-9.48-2.54c-.53-.14-.71-.81-.33-1.19l6.94-6.94c.39-.39,1.05-.21,1.2.32l2.54,9.48c.14.53-.34,1.02-.87.87Z"/><path class="cls-1" d="M67.07,46.12h0s-4.66-4.67-4.66-4.67c-.53-.53-1.39-.53-1.92,0l-3.68,3.69c-.53.53-.53,1.39,0,1.92l4.66,4.66c.53.53,1.39.53,1.92,0l3.69-3.68c.53-.53.53-1.39,0-1.92ZM65.03,47.78l-1.9,1.9c-.35.35-.91.35-1.26,0l-3.04-3.04c-.35-.35-.35-.91,0-1.26l1.9-1.9c.35-.35.91-.35,1.26,0l3.04,3.04c.35.35.35.91,0,1.26Z"/><path class="cls-1" d="M55.75,48.1c-.53-.53-1.39-.53-1.92,0l-3.69,3.69c-.53.53-.53,1.39,0,1.92l4.66,4.66c.53.53,1.39.53,1.92,0l3.69-3.69c.53-.53.53-1.39,0-1.92l-4.66-4.66ZM58.38,54.43l-1.9,1.9c-.35.35-.91.35-1.26,0l-3.04-3.04c-.35-.35-.35-.91,0-1.26l1.9-1.9c.35-.35.91-.35,1.26,0l3.04,3.04c.35.35.35.91,0,1.26Z"/><path class="cls-1" d="M49.11,54.75c-.53-.53-1.39-.53-1.92,0l-3.69,3.69c-.53.53-.53,1.39,0,1.92l4.66,4.66c.53.53,1.39.53,1.92,0l3.69-3.69c.53-.53.53-1.39,0-1.92l-4.66-4.66ZM51.74,61.08l-1.9,1.9c-.35.35-.91.35-1.26,0l-3.04-3.04c-.35-.35-.35-.91,0-1.26l1.9-1.9c.35-.35.91-.35,1.26,0l3.04,3.04c.35.35.35.91,0,1.26Z"/><path class="cls-1" d="M34.73,24.99c.53.53,1.39.53,1.92,0l3.69-3.69c.53-.53.53-1.39,0-1.92l-4.66-4.66c-.53-.53-1.39-.53-1.92,0l-3.69,3.69c-.53.53-.53,1.39,0,1.92l4.66,4.66ZM32.1,18.66l1.9-1.9c.35-.35.91-.35,1.26,0l3.04,3.04c.35.35.35.91,0,1.26l-1.9,1.9c-.35.35-.91.35-1.26,0l-3.04-3.04c-.35-.35-.35-.91,0-1.26Z"/><path class="cls-1" d="M28.08,31.64c.53.53,1.39.53,1.92,0l3.69-3.68c.53-.53.53-1.39,0-1.92h0s-4.66-4.67-4.66-4.67c-.53-.53-1.39-.53-1.92,0l-3.69,3.69c-.53.53-.53,1.39,0,1.92l4.66,4.66ZM25.45,25.3l1.9-1.9c.35-.35.91-.35,1.26,0l3.04,3.04c.35.35.35.91,0,1.26l-1.9,1.9c-.35.35-.91.35-1.26,0l-3.04-3.04c-.35-.35-.35-.91,0-1.26Z"/><path class="cls-1" d="M27.04,32.68l-4.66-4.66c-.53-.53-1.39-.53-1.92,0l-3.69,3.69c-.53.53-.53,1.39,0,1.92l4.66,4.66c.53.53,1.39.53,1.92,0l3.69-3.69c.53-.53.53-1.39,0-1.92ZM25.01,34.35l-1.9,1.9c-.35.35-.91.35-1.26,0l-3.04-3.04c-.35-.35-.35-.91,0-1.26l1.9-1.9c.35-.35.91-.35,1.26,0l3.04,3.04c.35.35.35.91,0,1.26Z"/></svg>