<?xml version="1.0" encoding="UTF-8"?><svg id="Warstwa_1" xmlns="http://www.w3.org/2000/svg" xmlns:xlink="http://www.w3.org/1999/xlink" viewBox="0 0 41.83 75"><defs><style>.cls-1{fill:url(#Gradient_bez_nazwy_10);}.cls-2{fill:url(#Gradient_bez_nazwy_10-2);}</style><linearGradient id="Gradient_bez_nazwy_10" x1="0" y1="54.81" x2="41.83" y2="54.81" gradientUnits="userSpaceOnUse"><stop offset="0" stop-color="#f08162"/><stop offset="1" stop-color="#eb6063"/></linearGradient><linearGradient id="Gradient_bez_nazwy_10-2" x1="3.85" y1="17.31" x2="38.46" y2="17.31" xlink:href="#Gradient_bez_nazwy_10"/></defs><path class="cls-1" d="M41.83,49.65v14.82c0,5.81-4.71,10.53-10.53,10.53H10.53c-5.81,0-10.53-4.71-10.53-10.53v-14.82c0-6.69,3.99-12.45,9.72-15.03,3.05,2.69,7.05,4.32,11.44,4.32s8.25-1.57,11.27-4.17c5.56,2.65,9.4,8.32,9.4,14.88Z"/><path class="cls-2" d="M38.44,16.47c.26,5.59-2.13,10.63-6.01,13.97-3.03,2.6-6.97,4.17-11.27,4.17s-8.39-1.63-11.44-4.32c-3.6-3.17-5.87-7.81-5.87-12.99C3.85,7.42,12.13-.53,22.14.03c8.76.48,15.89,7.68,16.3,16.44Z"/></svg>