<?xml version="1.0" encoding="UTF-8"?>
<svg xmlns="http://www.w3.org/2000/svg" version="1.1" viewBox="0 0 41.8 75">
  <defs>
    <style>
      .cls-1 {
        fill: #f9e6e5;
      }
    </style>
  </defs>
  <!-- Generator: Adobe Illustrator 28.6.0, SVG Export Plug-In . SVG Version: 1.2.0 Build 709)  -->
  <g>
    <g id="Warstwa_1">
      <path class="cls-1" d="M41.8,49.7v14.8c0,5.8-4.7,10.5-10.5,10.5H10.5c-5.8,0-10.5-4.7-10.5-10.5v-14.8c0-6.7,4-12.5,9.7-15,3.1,2.7,7.1,4.3,11.4,4.3s8.2-1.6,11.3-4.2c5.6,2.7,9.4,8.3,9.4,14.9Z"/>
      <path class="cls-1" d="M38.4,16.5c.3,5.6-2.1,10.6-6,14-3,2.6-7,4.2-11.3,4.2s-8.4-1.6-11.4-4.3c-3.6-3.2-5.9-7.8-5.9-13,0-9.9,8.3-17.8,18.3-17.3,8.8.5,15.9,7.7,16.3,16.4Z"/>
    </g>
  </g>
</svg>