<?xml version="1.0" encoding="UTF-8"?>
<svg xmlns="http://www.w3.org/2000/svg" version="1.1" viewBox="0 0 76 76">
  <defs>
    <style>
      .cls-1 {
        fill: #f9e6e5;
      }
    </style>
  </defs>
  <!-- Generator: Adobe Illustrator 28.6.0, SVG Export Plug-In . SVG Version: 1.2.0 Build 709)  -->
  <g>
    <g id="Warstwa_1">
      <path class="cls-1" d="M38.5,16l-22.5,22.5c-1.1,1.1-1.1,2.9,0,4l31.9,31.9c2.2,2.2,5.6,2.2,7.8,0l18.7-18.7c2.2-2.2,2.2-5.6,0-7.8l-31.9-31.9c-1.1-1.1-2.9-1.1-4,0ZM48.8,35.3l3.7,13.9c.5,2-1.3,3.9-3.3,3.3l-13.9-3.7c-2-.5-2.7-3.1-1.2-4.5l10.2-10.2c1.5-1.5,4-.8,4.5,1.2Z"/>
      <path class="cls-1" d="M36.1,9.6L27.2.7c-.9-.9-2.3-.9-3.2,0L.7,24c-.9.9-.9,2.3,0,3.2l8.9,8.9c.9.9,2.3.9,3.2,0l23.3-23.3c.9-.9.9-2.3,0-3.2h0ZM32.1,12.7l-8.5-8.5c-.4-.4-.2-1.2.4-1.8s1.4-.8,1.8-.4l8.5,8.5c.4.4.2,1.2-.4,1.8s-1.4.8-1.8.4ZM28.6,16.2l-8.5-8.5c-.4-.4-.2-1.2.4-1.8s1.4-.8,1.8-.4l8.5,8.5c.4.4.2,1.2-.4,1.8s-1.4.8-1.8.4ZM25.1,19.8l-8.5-8.5c-.4-.4-.2-1.2.4-1.8s1.4-.8,1.8-.4l8.5,8.5c.4.4.2,1.2-.4,1.8s-1.4.8-1.8.4ZM21.5,23.3l-8.5-8.5c-.4-.4-.2-1.2.4-1.8s1.4-.8,1.8-.4l8.5,8.5c.4.4.2,1.2-.4,1.8s-1.4.8-1.8.4ZM18,26.8l-8.5-8.5c-.4-.4-.2-1.2.4-1.8s1.4-.8,1.8-.4l8.5,8.5c.4.4.2,1.2-.4,1.8s-1.4.8-1.8.4ZM14.5,30.4l-8.5-8.5c-.4-.4-.2-1.2.4-1.8s1.4-.8,1.8-.4l8.5,8.5c.4.4.2,1.2-.4,1.8s-1.4.8-1.8.4ZM10.9,33.9L2.4,25.4c-.4-.4-.2-1.2.4-1.8s1.4-.8,1.8-.4l8.5,8.5c.4.4.2,1.2-.4,1.8s-1.4.8-1.8.4h0Z"/>
    </g>
  </g>
</svg>