<?xml version="1.0" encoding="UTF-8"?><svg id="Warstwa_1" xmlns="http://www.w3.org/2000/svg" xmlns:xlink="http://www.w3.org/1999/xlink" viewBox="0 0 75.99 75.99"><defs><style>.cls-1{fill:url(#Gradient_bez_nazwy_10);}.cls-2{fill:url(#Gradient_bez_nazwy_10-2);}</style><linearGradient id="Gradient_bez_nazwy_10" x1="905.81" y1="197.11" x2="943.28" y2="197.11" gradientTransform="translate(-746.98 560.52) rotate(-45)" gradientUnits="userSpaceOnUse"><stop offset="0" stop-color="#f08162"/><stop offset="1" stop-color="#eb6063"/></linearGradient><linearGradient id="Gradient_bez_nazwy_10-2" x1="-595.82" y1="880.95" x2="-595.82" y2="843.47" gradientTransform="translate(1049.36 -169.98) rotate(45)" xlink:href="#Gradient_bez_nazwy_10"/></defs><path class="cls-1" d="M38.55,16.02l-22.54,22.54c-1.09,1.09-1.09,2.87,0,3.96l31.86,31.86c2.15,2.15,5.62,2.15,7.77,0l18.73-18.73c2.15-2.15,2.15-5.62,0-7.77l-31.86-31.86c-1.09-1.09-2.87-1.09-3.96,0ZM48.76,35.27l3.72,13.88c.54,2.02-1.31,3.87-3.33,3.33l-13.88-3.72c-2.02-.54-2.69-3.07-1.22-4.55l10.16-10.16c1.47-1.47,4.01-.8,4.55,1.22Z"/><path class="cls-2" d="M36.09,9.59L27.16.66c-.88-.88-2.31-.88-3.2,0L.67,23.96c-.89.89-.89,2.32,0,3.2l8.92,8.92c.89.89,2.32.89,3.21,0l23.29-23.29c.89-.89.89-2.32,0-3.21ZM32.14,12.7l-8.53-8.53c-.37-.37-.18-1.16.42-1.76s1.39-.79,1.76-.42l8.53,8.53c.37.37.18,1.16-.42,1.76s-1.39.79-1.76.42ZM28.61,16.23l-8.53-8.53c-.37-.37-.18-1.16.42-1.76s1.39-.79,1.76-.42l8.53,8.53c.37.37.18,1.16-.42,1.76s-1.39.79-1.76.42ZM25.07,19.77l-8.53-8.53c-.37-.37-.18-1.16.42-1.76s1.39-.79,1.76-.42l8.53,8.53c.37.37.18,1.16-.42,1.76s-1.39.79-1.76.42ZM21.54,23.3l-8.53-8.53c-.37-.37-.18-1.16.42-1.76s1.39-.79,1.76-.42l8.53,8.53c.37.37.18,1.16-.42,1.76s-1.39.79-1.76.42ZM18,26.84l-8.53-8.53c-.37-.37-.18-1.16.42-1.76s1.39-.79,1.76-.42l8.53,8.53c.37.37.18,1.16-.42,1.76s-1.39.79-1.76.42ZM14.46,30.37l-8.53-8.53c-.37-.37-.18-1.16.42-1.76s1.39-.79,1.76-.42l8.53,8.53c.37.37.18,1.16-.42,1.76s-1.39.79-1.76.42ZM10.93,33.91L2.39,25.38c-.37-.37-.18-1.16.42-1.76s1.39-.79,1.76-.42l8.53,8.53c.37.37.18,1.16-.42,1.76s-1.39.79-1.76.42Z"/></svg>