<?xml version="1.0" encoding="UTF-8"?><svg id="Warstwa_1" xmlns="http://www.w3.org/2000/svg" xmlns:xlink="http://www.w3.org/1999/xlink" viewBox="0 0 495.73 75"><defs><style>.cls-1{fill:url(#Gradient_bez_nazwy_5-3);}.cls-2{fill:url(#Gradient_bez_nazwy_5);}.cls-3{fill:#f9e6e5;}.cls-4{fill:url(#Gradient_bez_nazwy_5-4);}.cls-5{fill:url(#Gradient_bez_nazwy_5-2);}.cls-6{fill:#191832;}</style><linearGradient id="Gradient_bez_nazwy_5" x1="279.15" y1="50.9" x2="25.98" y2="50.9" gradientTransform="translate(0 -13.4)" gradientUnits="userSpaceOnUse"><stop offset="0" stop-color="#f08062"/><stop offset="1" stop-color="#eb5f63"/></linearGradient><linearGradient id="Gradient_bez_nazwy_5-2" x1="279.15" y1="51.63" x2="25.98" y2="51.63" xlink:href="#Gradient_bez_nazwy_5"/><linearGradient id="Gradient_bez_nazwy_5-3" x1="279.15" y1="50.53" x2="25.98" y2="50.53" xlink:href="#Gradient_bez_nazwy_5"/><linearGradient id="Gradient_bez_nazwy_5-4" x1="279.15" y1="50.53" x2="25.98" y2="50.53" xlink:href="#Gradient_bez_nazwy_5"/></defs><path class="cls-2" d="M38.78,46.46l19.02,25.24h-18.29l-17.2-24.51h-7.32v24.51H0V3.29h30.73c17.2,0,23.78,10.61,23.78,21.95s-4.76,18.66-16.1,21.22h.73-.37ZM14.63,15v20.49h11.71c7.32,0,13.17-1.46,13.17-10.24s-5.85-10.24-13.17-10.24h-11.71Z"/><path class="cls-5" d="M120.37,45.73c0,18.29-10.98,27.44-29.27,27.44s-28.9-8.78-28.9-27.44V3.29h15v42.44c0,7.32,1.83,15,13.9,15s14.27-4.76,14.27-15V3.29h15v42.44h0Z"/><path class="cls-1" d="M129.51,3.29h29.27c17.56,0,31.1,10.98,31.1,33.66s-10.24,34.39-31.1,34.39h-29.27V2.93h0v.37ZM144.51,58.9h13.54c8.78,0,16.83-5.49,16.83-20.49s-4.76-22.68-19.76-22.68h-10.61v43.17Z"/><path class="cls-3" d="M273.66,0h211.83c5.49,0,10.24,4.39,10.24,10.24v54.51c0,5.49-4.39,10.24-10.24,10.24h-211.83c-5.49,0-10.24-4.39-10.24-10.24V10.24c0-5.49,4.39-10.24,10.24-10.24Z"/><path class="cls-6" d="M318.29,62.2c-13.9,0-25.24-11.34-25.24-25.24s11.34-25.24,25.24-25.24,17.56,5.12,21.59,12.8c-4.39,2.2-4.76,2.56-9.15,4.76-2.56-4.39-6.95-6.95-12.44-6.95-8.05,0-14.63,6.59-14.63,14.63s6.59,14.63,14.63,14.63,10.24-2.93,12.8-7.68q4.76,2.56,9.15,4.76c-4.39,8.05-12.44,13.54-22.32,13.54h.37Z"/><path class="cls-6" d="M347.2,12.44h10.98v49.39h-10.98V12.44h0Z"/><path class="cls-6" d="M376.1,27.8v34.02h-9.51V12.07h12.44l21.95,30.73V12.07h9.15v49.76h-9.15l-25.24-34.02h.37Z"/><path class="cls-6" d="M428.05,42.07v10.61h27.8v9.15h-38.41V12.44h36.22v9.15h-25.61v10.98h22.68v9.51h-22.68Z"/><path class="cls-4" d="M212.2,58.9h38.41v12.44h-53.05V2.93h49.76v12.44h-35.12v15.37h31.1v13.17h-31.1v14.63h0v.37Z"/></svg>