<?xml version="1.0" encoding="UTF-8"?>
<svg xmlns="http://www.w3.org/2000/svg" version="1.1" viewBox="0 0 128 128">
  <defs>
    <style>
      .cls-1 {
        fill: #0a0019;
      }

      .cls-2 {
        fill: #fafafa;
      }
    </style>
  </defs>
  <!-- Generator: Adobe Illustrator 28.6.0, SVG Export Plug-In . SVG Version: 1.2.0 Build 709)  -->
  <g>
    <g id="Warstwa_1">
      <rect class="cls-1" width="128" height="128"/>
      <path class="cls-2" d="M80.8,62.6h0l-15.5-15.5c-.5-.5-1.3-.5-1.9,0l-16.3,16.4c-.5.5-.5,1.3,0,1.9l15.5,15.5c.5.5,1.3.5,1.8,0l16.3-16.3c.5-.5.5-1.3,0-1.8h0ZM67.1,67.9l-9.1-2.4c-.5-.1-.7-.8-.3-1.1l6.7-6.7c.4-.4,1-.2,1.2.3l2.4,9.1c.1.5-.3,1-.8.8h0Z"/>
      <path class="cls-2" d="M88.2,70h0l-4.5-4.5c-.5-.5-1.3-.5-1.8,0l-3.5,3.6c-.5.5-.5,1.3,0,1.8l4.5,4.5c.5.5,1.3.5,1.8,0l3.6-3.5c.5-.5.5-1.3,0-1.8h0ZM86.3,71.6l-1.8,1.8c-.3.3-.9.3-1.2,0l-2.9-2.9c-.3-.3-.3-.9,0-1.2l1.8-1.8c.3-.3.9-.3,1.2,0l2.9,2.9c.3.3.3.9,0,1.2Z"/>
      <path class="cls-2" d="M77.3,71.9c-.5-.5-1.3-.5-1.8,0l-3.6,3.6c-.5.5-.5,1.3,0,1.8l4.5,4.5c.5.5,1.3.5,1.8,0l3.6-3.6c.5-.5.5-1.3,0-1.8l-4.5-4.5ZM79.8,78l-1.8,1.8c-.3.3-.9.3-1.2,0l-2.9-2.9c-.3-.3-.3-.9,0-1.2l1.8-1.8c.3-.3.9-.3,1.2,0l2.9,2.9c.3.3.3.9,0,1.2Z"/>
      <path class="cls-2" d="M70.9,78.3c-.5-.5-1.3-.5-1.8,0l-3.6,3.6c-.5.5-.5,1.3,0,1.8l4.5,4.5c.5.5,1.3.5,1.8,0l3.6-3.6c.5-.5.5-1.3,0-1.8l-4.5-4.5ZM73.4,84.4l-1.8,1.8c-.3.3-.9.3-1.2,0l-2.9-2.9c-.3-.3-.3-.9,0-1.2l1.8-1.8c.3-.3.9-.3,1.2,0l2.9,2.9c.3.3.3.9,0,1.2Z"/>
      <path class="cls-2" d="M57.1,49.7c.5.5,1.3.5,1.8,0l3.5-3.5c.5-.5.5-1.3,0-1.8l-4.5-4.5c-.5-.5-1.3-.5-1.8,0l-3.5,3.5c-.5.5-.5,1.3,0,1.8l4.5,4.5ZM54.5,43.6l1.8-1.8c.3-.3.9-.3,1.2,0l2.9,2.9c.3.3.3.9,0,1.2l-1.8,1.8c-.3.3-.9.3-1.2,0l-2.9-2.9c-.3-.3-.3-.9,0-1.2Z"/>
      <path class="cls-2" d="M50.7,56.1c.5.5,1.3.5,1.8,0l3.5-3.5c.5-.5.5-1.3,0-1.8h0l-4.5-4.5c-.5-.5-1.3-.5-1.8,0l-3.5,3.5c-.5.5-.5,1.3,0,1.8l4.5,4.5ZM48.1,50l1.8-1.8c.3-.3.9-.3,1.2,0l2.9,2.9c.3.3.3.9,0,1.2l-1.8,1.8c-.3.3-.9.3-1.2,0l-2.9-2.9c-.3-.3-.3-.9,0-1.2Z"/>
      <path class="cls-2" d="M49.7,57.1l-4.5-4.5c-.5-.5-1.3-.5-1.8,0l-3.5,3.5c-.5.5-.5,1.3,0,1.8l4.5,4.5c.5.5,1.3.5,1.8,0l3.5-3.5c.5-.5.5-1.3,0-1.9ZM47.7,58.7l-1.8,1.8c-.3.3-.9.3-1.2,0l-2.9-2.9c-.3-.3-.3-.9,0-1.2l1.8-1.8c.3-.3.9-.3,1.2,0l2.9,2.9c.3.3.3.9,0,1.2Z"/>
    </g>
  </g>
</svg>