<?xml version="1.0" encoding="UTF-8"?>
<svg xmlns="http://www.w3.org/2000/svg" version="1.1" xmlns:serif="http://www.serif.com/" xmlns:xlink="http://www.w3.org/1999/xlink" viewBox="0 0 456 456">
  <defs>
    <style>
      .cls-1 {
        fill: url(#Gradient_bez_nazwy-6);
      }

      .cls-2 {
        fill: url(#Gradient_bez_nazwy);
      }

      .cls-3 {
        fill: url(#Gradient_bez_nazwy-3);
      }

      .cls-4 {
        fill: url(#Gradient_bez_nazwy-7);
      }

      .cls-5 {
        fill: url(#Gradient_bez_nazwy_5);
      }

      .cls-6 {
        fill: #f9e6e5;
      }

      .cls-7 {
        fill: url(#Gradient_bez_nazwy-8);
      }

      .cls-8 {
        fill: #312344;
      }

      .cls-9 {
        fill: url(#Gradient_bez_nazwy_3);
      }

      .cls-10 {
        isolation: isolate;
      }

      .cls-11 {
        fill: url(#Gradient_bez_nazwy_4);
      }

      .cls-12 {
        fill: url(#Gradient_bez_nazwy-5);
      }

      .cls-13 {
        display: none;
      }

      .cls-14 {
        fill: #191832;
      }

      .cls-15 {
        fill: url(#Gradient_bez_nazwy-2);
      }

      .cls-16 {
        fill: url(#Gradient_bez_nazwy-4);
      }

      .cls-17 {
        fill: url(#Gradient_bez_nazwy_2);
      }
    </style>
    <linearGradient id="Gradient_bez_nazwy" data-name="Gradient bez nazwy" x1="346.3" y1="334" x2="474.7" y2="393.4" gradientTransform="translate(201.6 691.8) rotate(-45) scale(1 -1)" gradientUnits="userSpaceOnUse">
      <stop offset="0" stop-color="#f08162"/>
      <stop offset="1" stop-color="#eb6063"/>
    </linearGradient>
    <linearGradient id="Gradient_bez_nazwy_2" data-name="Gradient bez nazwy 2" x1="236.6" y1="386.9" x2="167.4" y2="386.9" gradientTransform="translate(0 -13.4)" gradientUnits="userSpaceOnUse">
      <stop offset="0" stop-color="#f08062"/>
      <stop offset="1" stop-color="#eb5f63"/>
    </linearGradient>
    <linearGradient id="Gradient_bez_nazwy_3" data-name="Gradient bez nazwy 3" x1="236.6" y1="387.1" x2="167.4" y2="387.1" gradientTransform="translate(0 -13.4)" gradientUnits="userSpaceOnUse">
      <stop offset="0" stop-color="#f08062"/>
      <stop offset="1" stop-color="#eb5f63"/>
    </linearGradient>
    <linearGradient id="Gradient_bez_nazwy_4" data-name="Gradient bez nazwy 4" x1="236.6" y1="386.9" x2="167.4" y2="386.9" gradientTransform="translate(0 -13.4)" gradientUnits="userSpaceOnUse">
      <stop offset="0" stop-color="#f08062"/>
      <stop offset="1" stop-color="#eb5f63"/>
    </linearGradient>
    <linearGradient id="Gradient_bez_nazwy_5" data-name="Gradient bez nazwy 5" x1="236.6" y1="386.8" x2="167.4" y2="386.8" gradientTransform="translate(0 -13.4)" gradientUnits="userSpaceOnUse">
      <stop offset="0" stop-color="#f08062"/>
      <stop offset="1" stop-color="#eb5f63"/>
    </linearGradient>
    <linearGradient id="Gradient_bez_nazwy-2" data-name="Gradient bez nazwy" x1="179.5" y1="118.2" x2="266.5" y2="118.2" gradientTransform="matrix(1,0,0,1,0,0)" xlink:href="#Gradient_bez_nazwy"/>
    <linearGradient id="Gradient_bez_nazwy-3" data-name="Gradient bez nazwy" x1="258.3" y1="134.5" x2="285.2" y2="134.5" gradientTransform="matrix(1,0,0,1,0,0)" xlink:href="#Gradient_bez_nazwy"/>
    <linearGradient id="Gradient_bez_nazwy-4" data-name="Gradient bez nazwy" x1="242.1" y1="150.7" x2="269" y2="150.7" gradientTransform="matrix(1,0,0,1,0,0)" xlink:href="#Gradient_bez_nazwy"/>
    <linearGradient id="Gradient_bez_nazwy-5" data-name="Gradient bez nazwy" x1="225.9" y1="166.9" x2="252.8" y2="166.9" gradientTransform="translate(188.1 -120.4) rotate(45)" xlink:href="#Gradient_bez_nazwy"/>
    <linearGradient id="Gradient_bez_nazwy-6" data-name="Gradient bez nazwy" x1="193.2" y1="69.4" x2="220.1" y2="69.4" gradientTransform="matrix(1,0,0,1,0,0)" xlink:href="#Gradient_bez_nazwy"/>
    <linearGradient id="Gradient_bez_nazwy-7" data-name="Gradient bez nazwy" x1="177" y1="85.6" x2="203.9" y2="85.6" gradientTransform="matrix(1,0,0,1,0,0)" xlink:href="#Gradient_bez_nazwy"/>
    <linearGradient id="Gradient_bez_nazwy-8" data-name="Gradient bez nazwy" x1="160.8" y1="101.8" x2="187.7" y2="101.8" gradientTransform="matrix(1,0,0,1,0,0)" xlink:href="#Gradient_bez_nazwy"/>
  </defs>
  <!-- Generator: Adobe Illustrator 28.6.0, SVG Export Plug-In . SVG Version: 1.2.0 Build 709)  -->
  <g>
    <g id="Warstwa_1">
      <g class="cls-10">
        <g id="Warstwa_1-2" data-name="Warstwa_1">
          <g>
            <g class="cls-13">
              <g>
                <path class="cls-8" d="M253.5,213.8l-14.4-14.5c-1.5-1.4-3.9-1.5-5.4,0l-6.4,6.4c-1.4,1.5-1.5,3.9,0,5.4l14.4,14.5c1.5,1.4,3.9,1.5,5.4,0l6.4-6.4c1.5-1.5,1.5-3.9,0-5.4ZM267.8,199.5l-14.3-14.5c-1.5-1.4-3.9-1.5-5.4,0l-6.5,6.4c-1.4,1.5-1.5,3.9,0,5.4l14.4,14.5c1.5,1.4,3.9,1.5,5.4,0l6.4-6.4c1.5-1.5,1.5-3.9,0-5.4ZM282.3,185.2l-14.4-14.5c-1.5-1.5-3.9-1.5-5.4,0l-6.5,6.4c-1.4,1.5-1.5,3.9,0,5.4l14.4,14.5c1.5,1.5,3.9,1.5,5.4,0l6.5-6.4c1.5-1.5,1.5-3.9,0-5.4ZM296.6,170.9l-14.4-14.5c-1.5-1.5-3.9-1.5-5.4,0l-6.4,6.4c-1.4,1.5-1.5,3.9,0,5.4l14.4,14.5c1.5,1.4,3.9,1.5,5.4,0l6.4-6.4c1.4-1.5,1.5-3.9,0-5.4ZM174.8,134.6h0l-14.4-14.3c-1.5-1.5-3.9-1.5-5.4,0l-6.5,6.4c-1.5,1.5-1.5,3.9,0,5.4l14.4,14.5c1.5,1.4,3.9,1.5,5.4,0l6.4-6.4c1.6-1.5,1.6-4,.2-5.5h0ZM189.1,120.4l-14.4-14.5c-1.5-1.5-3.9-1.5-5.4,0l-6.5,6.4c-1.4,1.5-1.5,3.9,0,5.4l14.4,14.5c1.5,1.5,3.9,1.5,5.4,0l6.5-6.4c1.4-1.5,1.5-3.9,0-5.4ZM203.5,106.1l-14.4-14.5c-1.5-1.4-3.9-1.5-5.4,0l-6.5,6.4c-1.4,1.5-1.5,3.9,0,5.4l14.4,14.5c1.5,1.4,3.9,1.5,5.4,0l6.5-6.4c1.5-1.5,1.5-3.9,0-5.4ZM218.1,92.3c0,0-.2-.3-.3-.4l-14.4-14.6c-.3-.3-.6-.5-.9-.6-1.4-.8-3.2-.6-4.5.6l-6.4,6.4c-1.4,1.5-1.5,3.9,0,5.4l14.4,14.6c1.5,1.4,3.9,1.5,5.4,0l6.4-6.4c1.3-1.4,1.5-3.5.4-5h0ZM226.2,100.4c-1.5-1.5-3.9-1.5-5.4,0l-48,47.8h0c-2.3,2.3-2.3,6,0,8.3l44.6,44.6h0c2.3,2.3,6,2.3,8.3,0l48-47.8c1.5-1.5,1.5-3.9,0-5.4l-47.5-47.5h0Z"/>
                <path class="cls-2" d="M284.8,144l-47.5-47.5c-1.5-1.5-3.9-1.5-5.4,0l-48,47.8h0c-2.3,2.3-2.3,6,0,8.3l44.6,44.6h0c2.3,2.3,6,2.3,8.3,0l48-47.8c1.5-1.5,1.5-3.9,0-5.4h0ZM240.5,161l-24-6.4c-3-.8-4-4.6-1.8-6.8l17.6-17.6c2.2-2.2,6-1.2,6.8,1.8l6.5,24c.8,3-2,5.8-5,5h-.1ZM229.1,88.3c0,0-.2-.3-.3-.4l-14.4-14.6c-.3-.3-.6-.5-.9-.6-1.4-.8-3.3-.6-4.5.6l-6.4,6.4c-1.5,1.5-1.5,3.9,0,5.4l14.4,14.6c1.5,1.4,3.9,1.5,5.4,0l6.4-6.4c1.3-1.4,1.5-3.5.4-5h0ZM214.5,102.2l-14.4-14.5c-1.5-1.4-3.9-1.5-5.4,0l-6.5,6.4c-1.5,1.5-1.5,3.9,0,5.4l14.4,14.5c1.5,1.4,3.9,1.5,5.4,0l6.5-6.4c1.5-1.5,1.5-3.9,0-5.4ZM200.1,116.4l-14.4-14.5c-1.5-1.5-3.9-1.5-5.4,0l-6.5,6.4c-1.4,1.5-1.5,3.9,0,5.4l14.4,14.5c1.5,1.5,3.9,1.5,5.4,0l6.5-6.4c1.4-1.5,1.5-3.9,0-5.4ZM185.8,130.6h0l-14.4-14.3c-1.5-1.5-3.9-1.5-5.4,0l-6.5,6.4c-1.5,1.5-1.5,3.9,0,5.4l14.4,14.5c1.5,1.4,3.9,1.5,5.4,0l6.4-6.4c1.6-1.5,1.6-4,.1-5.5h0ZM307.6,167l-14.4-14.5c-1.5-1.5-3.9-1.5-5.4,0l-6.4,6.4c-1.5,1.5-1.5,3.9,0,5.4l14.4,14.5c1.5,1.4,3.9,1.5,5.4,0l6.4-6.4c1.4-1.5,1.5-3.9,0-5.4ZM293.3,181.2l-14.4-14.5c-1.5-1.5-3.9-1.5-5.4,0l-6.5,6.4c-1.4,1.5-1.5,3.9,0,5.4l14.4,14.5c1.5,1.5,3.9,1.5,5.4,0l6.5-6.4c1.5-1.5,1.5-3.9,0-5.4ZM278.8,195.6l-14.3-14.5c-1.5-1.4-3.9-1.5-5.4,0l-6.5,6.4c-1.4,1.5-1.5,3.9,0,5.4l14.4,14.5c1.5,1.4,3.9,1.5,5.4,0l6.4-6.4c1.5-1.5,1.5-3.9,0-5.4ZM264.6,209.8l-14.4-14.5c-1.5-1.4-3.9-1.5-5.4,0l-6.4,6.4c-1.4,1.5-1.5,3.9,0,5.4l14.4,14.5c1.5,1.5,3.9,1.5,5.4,0l6.4-6.4c1.5-1.5,1.5-3.9,0-5.4Z"/>
              </g>
              <g>
                <rect class="cls-8" x="211.4" y="76.6" width="8.7" height="19.4" rx="1.6" ry="1.6" transform="translate(2.1 177.8) rotate(-45)"/>
                <rect class="cls-8" x="196.7" y="91.1" width="8.7" height="19.4" rx="1.6" ry="1.6" transform="translate(-12.4 171.7) rotate(-45)"/>
                <rect class="cls-8" x="182.5" y="105.5" width="8.7" height="19.4" rx="1.6" ry="1.6" transform="translate(-26.7 165.8) rotate(-45)"/>
                <rect class="cls-8" x="168.3" y="119.7" width="8.7" height="19.4" rx="1.6" ry="1.6" transform="translate(-40.9 160) rotate(-45)"/>
                <rect class="cls-8" x="290.1" y="155.3" width="8.7" height="19.4" rx="1.6" ry="1.6" transform="translate(-30.5 256.5) rotate(-45)"/>
                <rect class="cls-8" x="275.4" y="169.8" width="8.7" height="19.4" rx="1.6" ry="1.6" transform="translate(-45 250.4) rotate(-45)"/>
                <rect class="cls-8" x="261.1" y="184.2" width="8.7" height="19.4" rx="1.6" ry="1.6" transform="translate(-59.4 244.5) rotate(-45)"/>
                <rect class="cls-8" x="246.9" y="198.4" width="8.7" height="19.4" rx="1.6" ry="1.6" transform="translate(-73.6 238.6) rotate(-45)"/>
              </g>
            </g>
            <g>
              <path class="cls-17" d="M170.9,376l5.2,6.9h-5l-4.7-6.7h-2v6.7h-4.1v-18.7h8.4c4.7,0,6.5,2.9,6.5,6s-1.3,5.1-4.4,5.8h.2,0ZM164.3,367.4v5.6h3.2c2,0,3.6-.4,3.6-2.8s-1.6-2.8-3.6-2.8h-3.2Z"/>
              <path class="cls-9" d="M193.2,375.8c0,5-3,7.5-8,7.5s-7.9-2.4-7.9-7.5v-11.6h4.1v11.6c0,2,.5,4.1,3.8,4.1s3.9-1.3,3.9-4.1v-11.6h4.1v11.6h0Z"/>
              <path class="cls-11" d="M195.7,364.2h8c4.8,0,8.5,3,8.5,9.2s-2.8,9.4-8.5,9.4h-8v-18.7h0ZM199.8,379.4h3.7c2.4,0,4.6-1.5,4.6-5.6s-1.3-6.2-5.4-6.2h-2.9v11.7h0Z"/>
              <path class="cls-6" d="M235.1,363.3h57.9c1.5,0,2.8,1.2,2.8,2.8v14.9c0,1.5-1.2,2.8-2.8,2.8h-57.9c-1.5,0-2.8-1.2-2.8-2.8v-14.9c0-1.5,1.2-2.8,2.8-2.8Z"/>
              <g>
                <path class="cls-14" d="M247.3,380.3c-3.8,0-6.9-3.1-6.9-6.9s3.1-6.9,6.9-6.9,4.8,1.4,5.9,3.5c-1.2.6-1.3.7-2.5,1.3-.7-1.2-1.9-1.9-3.4-1.9-2.2,0-4,1.8-4,4s1.8,4,4,4,2.8-.8,3.5-2.1q1.3.7,2.5,1.3c-1.2,2.2-3.4,3.7-6.1,3.7h.1Z"/>
                <path class="cls-14" d="M255.2,366.7h3v13.5h-3v-13.5h0Z"/>
                <path class="cls-14" d="M263.1,370.9v9.3h-2.6v-13.6h3.4l6,8.4v-8.4h2.5v13.6h-2.5l-6.9-9.3h.1Z"/>
                <path class="cls-14" d="M277.3,374.8v2.9h7.6v2.5h-10.5v-13.5h9.9v2.5h-7v3h6.2v2.6h-6.2Z"/>
              </g>
              <path class="cls-5" d="M218.3,379.4h10.5v3.4h-14.5v-18.7h13.6v3.4h-9.6v4.2h8.5v3.6h-8.5v4h0Z"/>
            </g>
          </g>
        </g>
      </g>
      <g>
        <g>
          <path class="cls-15" d="M265.6,119.4l-41.3,41.3c-1.3,1.3-3.4,1.3-4.7,0l-39.1-39.1c-1.3-1.3-1.3-3.4,0-4.7l41.3-41.3c1.3-1.3,3.4-1.3,4.7,0l39.1,39.1h0c1.3,1.3,1.3,3.4,0,4.7Z"/>
          <path class="cls-3" d="M284.2,138.1l-9,9c-1.3,1.3-3.4,1.3-4.7,0l-11.4-11.4c-1.3-1.3-1.3-3.4,0-4.7l9-9c1.3-1.3,3.4-1.3,4.7,0l11.4,11.3h0c1.3,1.3,1.3,3.4,0,4.7Z"/>
          <path class="cls-16" d="M268,154.2l-9,9c-1.3,1.3-3.4,1.3-4.7,0l-11.4-11.4c-1.3-1.3-1.3-3.4,0-4.7l9-9c1.3-1.3,3.4-1.3,4.7,0l11.4,11.4c1.3,1.3,1.3,3.4,0,4.7Z"/>
          <rect class="cls-12" x="229.7" y="155.6" width="19.3" height="22.7" rx="3.3" ry="3.3" transform="translate(-47.9 218.1) rotate(-45)"/>
          <path class="cls-1" d="M219.1,72.9l-9,9c-1.3,1.3-3.4,1.3-4.7,0l-11.3-11.3c-1.3-1.3-1.3-3.4,0-4.7l9-9c1.3-1.3,3.4-1.3,4.7,0l11.4,11.4c1.3,1.3,1.3,3.4,0,4.7Z"/>
          <path class="cls-4" d="M202.9,89.2l-9,9c-1.3,1.3-3.4,1.3-4.7,0l-11.3-11.3c-1.3-1.3-1.3-3.4,0-4.7l9-9c1.3-1.3,3.4-1.3,4.7,0l11.3,11.3h0c1.3,1.3,1.3,3.4,0,4.7Z"/>
          <path class="cls-7" d="M186.8,105.3l-9,9c-1.3,1.3-3.4,1.3-4.7,0l-11.4-11.3c-1.3-1.3-1.3-3.4,0-4.7l9-9c1.3-1.3,3.4-1.3,4.7,0l11.3,11.3c1.3,1.3,1.3,3.4,0,4.7Z"/>
        </g>
        <g>
          <path class="cls-6" d="M275.6,114.7h0s-39.1-39.1-39.1-39.1c-1.3-1.3-3.4-1.3-4.7,0l-41.3,41.3c-1.3,1.3-1.3,3.4,0,4.7l39.1,39.1c1.3,1.3,3.4,1.3,4.7,0l41.3-41.3c1.3-1.3,1.3-3.4,0-4.7ZM240.8,128.1l-23.1-6.2c-1.3-.3-1.7-2-.8-2.9l16.9-16.9c1-1,2.6-.5,2.9.8l6.2,23.1c.3,1.3-.8,2.5-2.1,2.1Z"/>
          <path class="cls-6" d="M294.2,133.4h0s-11.4-11.4-11.4-11.4c-1.3-1.3-3.4-1.3-4.7,0l-9,9c-1.3,1.3-1.3,3.4,0,4.7l11.4,11.4c1.3,1.3,3.4,1.3,4.7,0l9-9c1.3-1.3,1.3-3.4,0-4.7ZM289.3,137.4l-4.6,4.6c-.9.9-2.2.9-3.1,0l-7.4-7.4c-.9-.9-.9-2.2,0-3.1l4.6-4.6c.9-.9,2.2-.9,3.1,0l7.4,7.4c.9.9.9,2.2,0,3.1Z"/>
          <path class="cls-6" d="M266.7,138.2c-1.3-1.3-3.4-1.3-4.7,0l-9,9c-1.3,1.3-1.3,3.4,0,4.7l11.4,11.4c1.3,1.3,3.4,1.3,4.7,0l9-9c1.3-1.3,1.3-3.4,0-4.7l-11.4-11.4ZM273.1,153.6l-4.6,4.6c-.9.9-2.2.9-3.1,0l-7.4-7.4c-.9-.9-.9-2.2,0-3.1l4.6-4.6c.9-.9,2.2-.9,3.1,0l7.4,7.4c.9.9.9,2.2,0,3.1Z"/>
          <path class="cls-6" d="M250.5,154.4c-1.3-1.3-3.4-1.3-4.7,0l-9,9c-1.3,1.3-1.3,3.4,0,4.7l11.4,11.4c1.3,1.3,3.4,1.3,4.7,0l9-9c1.3-1.3,1.3-3.4,0-4.7l-11.4-11.4ZM256.9,169.8l-4.6,4.6c-.9.9-2.2.9-3.1,0l-7.4-7.4c-.9-.9-.9-2.2,0-3.1l4.6-4.6c.9-.9,2.2-.9,3.1,0l7.4,7.4c.9.9.9,2.2,0,3.1Z"/>
          <path class="cls-6" d="M215.5,81.9c1.3,1.3,3.4,1.3,4.7,0l9-9c1.3-1.3,1.3-3.4,0-4.7l-11.4-11.4c-1.3-1.3-3.4-1.3-4.7,0l-9,9c-1.3,1.3-1.3,3.4,0,4.7l11.4,11.4ZM209.1,66.5l4.6-4.6c.9-.9,2.2-.9,3.1,0l7.4,7.4c.9.9.9,2.2,0,3.1l-4.6,4.6c-.9.9-2.2.9-3.1,0l-7.4-7.4c-.9-.9-.9-2.2,0-3.1Z"/>
          <path class="cls-6" d="M199.3,98.1c1.3,1.3,3.4,1.3,4.7,0l9-9c1.3-1.3,1.3-3.4,0-4.7h0s-11.4-11.4-11.4-11.4c-1.3-1.3-3.4-1.3-4.7,0l-9,9c-1.3,1.3-1.3,3.4,0,4.7l11.4,11.4ZM192.9,82.7l4.6-4.6c.9-.9,2.2-.9,3.1,0l7.4,7.4c.9.9.9,2.2,0,3.1l-4.6,4.6c-.9.9-2.2.9-3.1,0l-7.4-7.4c-.9-.9-.9-2.2,0-3.1Z"/>
          <path class="cls-6" d="M196.8,100.7l-11.4-11.4c-1.3-1.3-3.4-1.3-4.7,0l-9,9c-1.3,1.3-1.3,3.4,0,4.7l11.4,11.4c1.3,1.3,3.4,1.3,4.7,0l9-9c1.3-1.3,1.3-3.4,0-4.7ZM191.8,104.7l-4.6,4.6c-.9.9-2.2.9-3.1,0l-7.4-7.4c-.9-.9-.9-2.2,0-3.1l4.6-4.6c.9-.9,2.2-.9,3.1,0l7.4,7.4c.9.9.9,2.2,0,3.1Z"/>
        </g>
      </g>
    </g>
  </g>
</svg>